<?xml version="1.0" encoding="iso-8859-1"?>
<!-- Generator: Adobe Illustrator 19.1.0, SVG Export Plug-In . SVG Version: 6.00 Build 0)  -->
<svg xmlns="http://www.w3.org/2000/svg" xmlns:xlink="http://www.w3.org/1999/xlink" version="1.1" id="Capa_1" x="0px" y="0px" viewBox="0 0 488.9 488.9" style="enable-background:new 0 0 488.9 488.9;" xml:space="preserve" width="512px" height="512px">
<g>
	<g>
		<path d="M275.6,223.85c5.7-27.1-7.3-28-7.3-28s-1.9-3.7-7.1-6.6c-3.4-2-8.2-3.6-14.5-3.1c-2,0.1-4,0.5-5.8,1.1l0,0    c-2.3,0.8-4.4,1.9-6.4,3.3c-2.4,1.5-4.6,3.3-6.6,5.4c-3.1,3.2-5.9,7.3-7.1,12.4c-1.1,4.4-1.1,9.1,0.6,13.9    c-2.3-0.2-5.1,1.1-2.5,10.2c1.9,6.7,3.6,8.5,5,8.6c1.5,9.6,6.7,22,23.4,23.3c16.4-0.6,21.4-12.8,23.1-22.2    c1.4,0.9,3.6,0.4,6.1-8.3C278.6,226.75,277.3,224.45,275.6,223.85z" fill="#FFFFFF"/>
		<path d="M444.4,217.65c-19.7,0-36.5,12.9-42.3,30.7l-62.7-6.2c-0.2-29.9-14.6-56.4-36.9-73.1l43.4-73c4.4,1.5,9.1,2.3,14,2.3    c24.5,0,44.4-19.9,44.4-44.4s-19.9-44.5-44.4-44.5s-44.4,19.9-44.4,44.4c0,12.8,5.4,24.3,14.1,32.4l-43.4,73    c-11.7-5.4-24.7-8.4-38.4-8.4c-22.8,0-43.7,8.4-59.7,22.2l-35.2-33.3c4-6.7,6.3-14.5,6.3-22.9c0-24.5-19.9-44.4-44.4-44.4    s-44.4,19.9-44.4,44.4s19.9,44.4,44.4,44.4c9.3,0,17.9-2.8,25-7.7l35.2,33.3c-11.8,15.4-18.9,34.7-18.9,55.7    c0,6.8,0.8,13.5,2.2,19.9l-75.8,25.3c-7.8-13-21.9-21.6-38.1-21.6c-24.5,0-44.4,19.9-44.4,44.4s19.9,44.4,44.4,44.4    s44.4-19.9,44.4-44.4c0-1.6-0.1-3.2-0.3-4.7l75.8-25.3c14.4,31.7,46.4,53.8,83.5,53.8c3.8,0,7.5-0.3,11.1-0.7l14,61.2    c-15,7.1-25.4,22.4-25.4,40.2c0,24.5,19.9,44.4,44.4,44.4s44.4-19.9,44.4-44.4s-19.9-44.4-44.4-44.4c-0.1,0-0.3,0-0.4,0l-14-61.2    c30.4-10.4,53.7-36.3,60.2-68.3l62.7,6.2c2.6,22.1,21.3,39.2,44.1,39.2c24.5,0,44.4-19.9,44.4-44.4S469,217.65,444.4,217.65z     M305.8,289.05c-0.7-6-3.2-12.7-10.8-14.6c-14.5-3.7-26.3-12-26.3-12l-9.2,29.1l-1.7,5.5v-0.1l-1.5,4.6l-4.9-13.8    c12.3-17.1-3.3-16.5-3.3-16.5s-15.5-0.7-3.3,16.5l-4.9,13.9l-1.5-4.7l-10.9-34.6c0,0-11.8,8.3-26.3,12    c-7.6,1.9-10.1,8.7-10.8,14.6c-10.2-12.7-16.4-28.8-16.4-46.4c0-40.9,33.2-74,74-74c40.9,0,74,33.2,74,74    C322.1,260.15,316,276.35,305.8,289.05z" fill="#FFFFFF"/>
	</g>
</g>
<g>
</g>
<g>
</g>
<g>
</g>
<g>
</g>
<g>
</g>
<g>
</g>
<g>
</g>
<g>
</g>
<g>
</g>
<g>
</g>
<g>
</g>
<g>
</g>
<g>
</g>
<g>
</g>
<g>
</g>
</svg>
